<svg xmlns="http://www.w3.org/2000/svg" width="32" height="32" viewBox="0 0 32 32"><style>.a{fill:#444;}</style><path d="M13.6 9.6c-0.3-0.2-0.7-0.3-1.1-0.4 -0.5 0-1 0.2-1.4 0.6 -0.3 0.4-0.5 0.9-0.4 1.4 0 0.7 0.2 1.4 0.6 2.2 0.2 0.4 0.5 0.7 0.8 0.9 0.3 0.2 0.7 0.4 1.1 0.4 0.5 0 1-0.2 1.3-0.6 0.2-0.2 0.3-0.5 0.3-0.8 0-0.3 0-0.5 0-0.7 0-0.8-0.2-1.5-0.6-2.3C14.2 10.1 13.9 9.8 13.6 9.6z" class="a"/><path d="M13.5 17.9c-0.1 0-0.4 0-0.8 0 -0.4 0.1-0.8 0.1-1.3 0.3 -0.1 0-0.2 0.1-0.4 0.2 -0.2 0.1-0.4 0.2-0.6 0.4 -0.2 0.2-0.3 0.4-0.5 0.6 -0.1 0.2-0.2 0.5-0.2 0.9 0 0.7 0.3 1.3 1 1.7 0.6 0.4 1.4 0.7 2.5 0.7 1 0 1.7-0.2 2.2-0.6 0.5-0.4 0.7-0.9 0.7-1.5 0-0.5-0.2-0.9-0.5-1.3 -0.4-0.3-0.9-0.8-1.7-1.3C13.8 17.9 13.7 17.9 13.5 17.9z" class="a"/><path d="M0 0v32h32V0H0zM15.8 9.6c0.2 0.2 0.3 0.3 0.4 0.6 0.1 0.2 0.3 0.5 0.4 0.7 0.1 0.3 0.1 0.6 0.1 1 0 0.7-0.2 1.3-0.5 1.7 -0.2 0.2-0.3 0.4-0.5 0.6 -0.2 0.2-0.4 0.3-0.6 0.5 -0.1 0.1-0.2 0.3-0.3 0.4 -0.1 0.2-0.2 0.3-0.2 0.6 0 0.2 0.1 0.4 0.2 0.5 0.1 0.1 0.2 0.2 0.3 0.3l0.7 0.5c0.4 0.3 0.8 0.7 1.1 1.1 0.3 0.4 0.5 1 0.5 1.6 0 0.9-0.4 1.8-1.3 2.5 -0.9 0.8-2.2 1.1-3.9 1.2 -1.4 0-2.5-0.3-3.2-0.9C8.4 22 8 21.4 8 20.6c0-0.4 0.1-0.8 0.3-1.2C8.6 19 9 18.6 9.6 18.3c0.7-0.4 1.3-0.6 2.1-0.7 0.7-0.1 1.3-0.2 1.8-0.2 -0.1-0.2-0.3-0.4-0.4-0.6 -0.1-0.2-0.2-0.4-0.2-0.7 0-0.2 0-0.3 0.1-0.4 0-0.1 0.1-0.2 0.1-0.3 -0.2 0-0.4 0-0.6 0 -1.1 0-1.9-0.3-2.5-1C9.3 13.7 9 13 9 12.3c0-1 0.4-1.8 1.3-2.6 0.6-0.5 1.2-0.8 1.8-0.9 0.6-0.1 1.2-0.2 1.7-0.2h4l-1.2 0.7h-1.2C15.5 9.4 15.6 9.5 15.8 9.6zM24 16.6h-2.3v2.3h-1.1v-2.3h-2.3v-1.1h2.3v-2.3h1.1v2.3H24V16.6z" class="a"/></svg>